<svg width="81" height="81" viewBox="0 0 81 81" fill="none" xmlns="http://www.w3.org/2000/svg">
<path d="M69.1333 5.45581H11.8667C8.35045 5.45581 5.5 8.30626 5.5 11.8225V53.1891C5.5 56.7054 8.35045 59.5558 11.8667 59.5558H69.1333C72.6495 59.5558 75.5 56.7054 75.5 53.1891V11.8225C75.5 8.30626 72.6495 5.45581 69.1333 5.45581Z" stroke="white" stroke-width="3" stroke-miterlimit="10"/>
<path d="M53.2333 75.4552H27.7666L30.9666 59.5552H50.0333L53.2333 75.4552Z" stroke="white" stroke-width="3" stroke-miterlimit="10"/>
<path d="M18.2334 75.4553H62.7667" stroke="white" stroke-width="3" stroke-miterlimit="10"/>
<path d="M40.5007 53.1558C42.2496 53.1558 43.6673 51.7381 43.6673 49.9892C43.6673 48.2403 42.2496 46.8225 40.5007 46.8225C38.7517 46.8225 37.334 48.2403 37.334 49.9892C37.334 51.7381 38.7517 53.1558 40.5007 53.1558Z" fill="white"/>
</svg>
