<svg width="81" height="80" viewBox="0 0 81 80" fill="none" xmlns="http://www.w3.org/2000/svg">
<g clip-path="url(#clip0_1_375)">
<path d="M76.7365 69.0908H25.8438C23.8402 69.0908 22.2075 67.4617 22.2075 65.4562V61.8217C22.2075 61.1562 22.5729 60.5453 23.1565 60.2253L40.9493 50.5217C34.9893 44.0762 34.9238 34.958 34.9238 34.5362L34.9347 23.6398C34.9347 23.538 34.9438 23.438 34.9602 23.3398C36.2129 15.9108 44.4147 10.9217 51.2893 10.9217H51.2966C58.1675 10.9217 66.3675 15.9071 67.6238 23.3344C67.6402 23.4344 67.6493 23.5362 67.6493 23.6362L67.6547 34.5344C67.6547 34.9544 67.5893 44.0726 61.6311 50.518L79.4238 60.2217C80.0075 60.5417 80.3711 61.1526 80.3711 61.818V65.4562C80.3711 67.4617 78.7402 69.0908 76.7365 69.0908ZM57.6911 52.5089C57.1584 52.218 56.8056 51.6817 56.7493 51.078C56.6947 50.4744 56.9456 49.8835 57.4147 49.5017C63.9547 44.1998 64.0202 34.6326 64.0202 34.5362L64.0129 23.798C62.9911 18.3435 56.522 14.5544 51.2893 14.5544C46.0547 14.5562 39.5893 18.3471 38.5711 23.8017L38.5602 34.5398C38.5602 34.6326 38.6602 44.2308 45.1638 49.5053C45.6347 49.8871 45.8856 50.478 45.8293 51.0817C45.7747 51.6853 45.422 52.2217 44.8893 52.5126L25.8438 62.9017V65.4562H76.7329L76.7347 62.8998L57.6911 52.5089ZM34.2747 15.4908C32.6693 14.8671 31.0038 14.5398 29.4529 14.5398C24.2184 14.5417 17.7511 18.3326 16.7329 23.7871L16.722 34.5253C16.722 34.6198 16.8202 44.2162 23.3256 49.4908C23.7965 49.8726 24.0475 50.4635 23.9929 51.0671C23.9365 51.6708 23.5838 52.2071 23.0511 52.498L4.00564 62.8871V65.4417H16.7311C17.7347 65.4417 18.5475 66.2562 18.5475 67.2598C18.5475 68.2635 17.7347 69.078 16.7311 69.078H4.00564C2.002 69.078 0.371094 67.4471 0.371094 65.4417V61.8071C0.371094 61.1435 0.73473 60.5308 1.31837 60.2126L19.1111 50.5071C13.1529 44.0617 13.0856 34.9435 13.0856 34.5235L13.0965 23.6253C13.0965 23.5253 13.1056 23.4235 13.122 23.3253C14.3747 15.898 22.5765 10.9089 29.4529 10.9089C29.4602 10.9089 29.4711 10.9089 29.4802 10.9089C31.4638 10.9089 33.5747 11.3217 35.5875 12.1017C36.5256 12.4653 36.9893 13.518 36.6275 14.4526C36.262 15.3889 35.2038 15.8544 34.2747 15.4908Z" fill="white"/>
</g>
<defs>
<clipPath id="clip0_1_375">
<rect width="80" height="80" fill="white" transform="translate(0.371094)"/>
</clipPath>
</defs>
</svg>
