<svg width="81" height="80" viewBox="0 0 81 80" fill="none" xmlns="http://www.w3.org/2000/svg">
<g clip-path="url(#clip0_1_346)">
<path d="M80.2942 34.9846L71.0748 6.61334C70.8079 5.79288 69.9267 5.34382 69.1057 5.61023L1.45106 27.5953C0.630447 27.862 0.181389 28.7436 0.447949 29.5644L4.81197 42.9938C4.81072 43.02 4.80806 43.0458 4.80806 43.0724V72.9041C4.80806 73.7669 5.50774 74.4666 6.37055 74.4666H77.5078C78.3706 74.4666 79.0703 73.7669 79.0703 72.9041V43.0724C79.0703 42.2096 78.3706 41.5099 77.5078 41.5099H65.2704L79.2913 36.9537C80.1117 36.687 80.5608 35.8054 80.2942 34.9846ZM75.9452 44.6348V71.3416H7.93288V44.6348H16.5878V62.0422C16.5878 62.905 17.2875 63.6047 18.1503 63.6047C19.0131 63.6047 19.7128 62.905 19.7128 62.0422V44.6348H55.4063H75.9452ZM55.1588 41.5099H7.61554L3.90276 30.0845L12.1388 27.4081L15.2891 36.9824C15.5055 37.6399 16.1165 38.0569 16.7729 38.0569C16.9348 38.0569 17.0995 38.0316 17.2617 37.9782C18.0814 37.7084 18.5273 36.8254 18.2575 36.0056L15.1108 26.4422L68.5856 9.06504L76.8394 34.4645L55.1588 41.5099Z" fill="white"/>
<path d="M66.2151 15.9138C65.9482 15.0934 65.0668 14.6445 64.2461 14.9107L23.5077 28.1492C22.6871 28.4159 22.238 29.2974 22.5046 30.1182C22.7193 30.7785 23.3316 31.1982 23.9904 31.1982C24.1504 31.1982 24.3132 31.1734 24.4736 31.1213L65.212 17.8829C66.0326 17.6161 66.4818 16.7346 66.2151 15.9138Z" fill="white"/>
<path d="M59.3447 26.0628L67.0559 23.557C67.8765 23.2903 68.3256 22.4087 68.059 21.588C67.7921 20.7674 66.9107 20.3184 66.09 20.5849L58.3788 23.0906C57.5582 23.3573 57.1091 24.2389 57.3757 25.0597C57.5904 25.72 58.2027 26.1396 58.8614 26.1396C59.0214 26.1396 59.1844 26.1148 59.3447 26.0628Z" fill="white"/>
<path d="M65.8611 33.2405C66.0758 33.9008 66.6881 34.3205 67.3469 34.3205C67.5067 34.3205 67.6697 34.2956 67.8301 34.2436L70.2703 33.4506C71.0909 33.1839 71.5401 32.3024 71.2734 31.4816C71.0065 30.661 70.1253 30.2119 69.3043 30.4785L66.8642 31.2714C66.0436 31.5381 65.5944 32.4197 65.8611 33.2405Z" fill="white"/>
<path d="M61.4148 33.0424L58.9746 33.8353C58.1539 34.102 57.7047 34.9836 57.9714 35.8044C58.186 36.4647 58.7985 36.8844 59.4572 36.8844C59.6171 36.8844 59.7799 36.8595 59.9405 36.8075L62.3808 36.0145C63.2014 35.7478 63.6504 34.8663 63.3839 34.0455C63.1173 33.2249 62.2366 32.776 61.4148 33.0424Z" fill="white"/>
<path d="M39.61 29.1898L25.3515 33.8232C24.5309 34.0899 24.0817 34.9715 24.3484 35.7923C24.5631 36.4526 25.1754 36.8723 25.8342 36.8723C25.994 36.8723 26.157 36.8474 26.3174 36.7954L40.5759 32.162C41.3965 31.8953 41.8456 31.0137 41.579 30.1929C41.312 29.3723 40.4306 28.9234 39.61 29.1898Z" fill="white"/>
<path d="M18.1504 65.6812C17.2876 65.6812 16.5879 66.3808 16.5879 67.2436V67.8555C16.5879 68.7183 17.2876 69.418 18.1504 69.418C19.0132 69.418 19.7129 68.7183 19.7129 67.8555V67.2436C19.7129 66.3808 19.0132 65.6812 18.1504 65.6812Z" fill="white"/>
<path d="M25.6133 50.4155C25.6133 51.2783 26.313 51.978 27.1758 51.978H70.011C70.8738 51.978 71.5735 51.2783 71.5735 50.4155C71.5735 49.5527 70.8738 48.853 70.011 48.853H27.1758C26.313 48.853 25.6133 49.5526 25.6133 50.4155Z" fill="white"/>
<path d="M70.0115 54.8193H61.9033C61.0405 54.8193 60.3408 55.519 60.3408 56.3818C60.3408 57.2446 61.0405 57.9443 61.9033 57.9443H70.0115C70.8743 57.9443 71.574 57.2446 71.574 56.3818C71.574 55.519 70.8743 54.8193 70.0115 54.8193Z" fill="white"/>
<path d="M70.0112 65.2224H67.4453C66.5825 65.2224 65.8828 65.9221 65.8828 66.7849C65.8828 67.6477 66.5825 68.3474 67.4453 68.3474H70.0112C70.874 68.3474 71.5737 67.6477 71.5737 66.7849C71.5737 65.9221 70.874 65.2224 70.0112 65.2224Z" fill="white"/>
<path d="M61.7152 65.2224H59.1494C58.2866 65.2224 57.5869 65.9221 57.5869 66.7849C57.5869 67.6477 58.2866 68.3474 59.1494 68.3474H61.7152C62.578 68.3474 63.2776 67.6477 63.2776 66.7849C63.2776 65.9221 62.5781 65.2224 61.7152 65.2224Z" fill="white"/>
<path d="M42.1691 54.8193H27.1767C26.3139 54.8193 25.6143 55.519 25.6143 56.3818C25.6143 57.2446 26.3139 57.9443 27.1767 57.9443H42.1691C43.0319 57.9443 43.7316 57.2446 43.7316 56.3818C43.7316 55.519 43.0319 54.8193 42.1691 54.8193Z" fill="white"/>
</g>
<defs>
<clipPath id="clip0_1_346">
<rect width="80" height="80" fill="white" transform="translate(0.371094)"/>
</clipPath>
</defs>
</svg>
