<svg width="328" height="128" viewBox="0 0 328 128" fill="none" xmlns="http://www.w3.org/2000/svg">
<path d="M131.055 28.4733C126.385 28.0133 120.055 35.8133 124.635 39.5633C127.175 41.6433 132.705 40.7433 132.635 36.8533C132.624 36.7454 132.578 36.6441 132.504 36.5647C132.43 36.4854 132.332 36.4322 132.225 36.4133C128.555 35.5733 124.915 37.1533 125.535 41.4133C125.868 43.2497 126.814 44.919 128.218 46.1487C129.622 47.3783 131.401 48.0955 133.265 48.1833C133.485 48.1833 133.405 47.8033 133.265 47.7633C130.065 47.0933 127.045 45.1033 126.415 41.6833C126.273 41.078 126.261 40.4494 126.38 39.8391C126.499 39.2289 126.746 38.6508 127.105 38.1433C127.533 37.6292 128.099 37.2476 128.735 37.0433C129.285 36.8733 131.255 36.5633 131.735 37.0433C132.595 37.9333 130.255 39.4433 129.555 39.6833C128.864 39.9313 128.127 40.0241 127.396 39.9549C126.665 39.8858 125.958 39.6565 125.325 39.2833C123.385 37.9233 123.865 35.3633 124.805 33.5533C126.075 31.1033 128.295 29.1133 131.155 29.0133C131.415 29.0133 131.275 28.5233 131.075 28.5033L131.055 28.4733Z" fill="#BA68C8"/>
<path d="M271.869 91.5401C273.339 88.2301 273.179 84.8001 277.459 83.7101C279.339 83.2301 283.789 82.7901 285.199 84.4601C285.456 84.8634 285.56 85.3453 285.492 85.8186C285.424 86.292 285.189 86.7253 284.829 87.0401C283.719 88.0401 282.889 86.8401 282.599 85.7801C282.376 84.8014 282.462 83.7775 282.845 82.8497C283.229 81.9219 283.89 81.1359 284.739 80.6001C286.535 79.4173 288.709 78.9502 290.832 79.2908C292.955 79.6314 294.873 80.755 296.209 82.4401C296.369 82.6401 296.539 82.4401 296.469 82.2201C293.189 74.6701 277.469 79.9201 282.469 87.1601C283.999 89.3501 286.699 87.4201 286.189 85.1001C285.629 82.5301 281.249 82.6601 279.309 82.7901C277.343 82.7912 275.448 83.5217 273.989 84.8401C272.279 86.5201 272.049 89.1801 271.689 91.4401C271.689 91.5401 271.779 91.6901 271.849 91.5401H271.869Z" fill="#BA68C8"/>
<path d="M243.565 39.5538C239.245 39.0038 229.955 42.6438 232.375 48.5538C233.665 51.7038 239.425 53.7238 241.315 50.1138C241.356 50.0155 241.357 49.9052 241.317 49.8063C241.278 49.7074 241.202 49.6276 241.105 49.5838C232.105 44.4838 222.625 59.2138 232.175 64.5838C232.475 64.7538 232.465 64.2438 232.295 64.1138C231.471 63.5496 230.768 62.8268 230.227 61.9876C229.685 61.1485 229.317 60.2098 229.143 59.2264C228.969 58.2431 228.992 57.235 229.213 56.2609C229.433 55.2869 229.845 54.3666 230.425 53.5538C231.398 52.0004 232.783 50.7473 234.425 49.9338C235.655 49.3538 238.745 48.5338 239.895 49.7338C240.415 50.2938 240.405 49.5938 240.135 50.2438C239.879 50.6298 239.486 50.9048 239.035 51.0138C238.053 51.3256 236.994 51.2903 236.035 50.9138C234.035 50.2138 232.465 48.3738 233.035 46.1638C234.085 41.7338 239.725 40.1638 243.675 40.0938C243.945 40.0938 243.775 39.5838 243.565 39.5538Z" fill="#BA68C8"/>
<path d="M175.135 28.4184C175.135 28.4184 174.875 33.2584 178.465 35.9484L182.225 34.7984C182.225 34.7984 179.715 33.5984 178.465 28.4184H175.135Z" fill="#455A64"/>
<path d="M304.225 40.8539C304.225 40.8539 299.415 41.4539 296.485 38.0439L297.375 34.2139C297.375 34.2139 298.745 36.6439 303.995 37.5339L304.225 40.8539Z" fill="#BA68C8"/>
<path d="M234.485 17.2433C234.485 17.2433 229.685 17.8433 226.755 14.4433L227.635 10.6133C227.635 10.6133 229.015 13.0333 234.265 13.9333L234.485 17.2433Z" fill="#BA68C8"/>
<path d="M153.615 6.74332C153.615 6.74332 148.815 7.34332 145.885 3.94332L146.765 0.113319C146.765 0.113319 148.145 2.53332 153.385 3.43332L153.615 6.74332Z" fill="#BA68C8"/>
<path d="M327.955 110.324C327.955 110.324 323.155 110.914 320.225 107.514L321.105 103.684C321.105 103.684 322.485 106.114 327.735 107.004L327.955 110.324Z" fill="#BA68C8"/>
<path d="M78.7859 127.941C77.3159 124.631 77.4659 121.201 73.1959 120.101C71.3159 119.621 66.8659 119.181 65.4459 120.861C65.1917 121.264 65.0893 121.743 65.1571 122.214C65.2249 122.685 65.4585 123.117 65.8159 123.431C66.9359 124.431 67.8159 123.231 68.0559 122.181C68.2799 121.201 68.1943 120.176 67.811 119.246C67.4278 118.316 66.7656 117.529 65.9159 116.991C64.1147 115.795 61.929 115.321 59.7942 115.664C57.6593 116.007 55.7319 117.141 54.3959 118.841C54.2459 119.031 54.0759 118.841 54.1459 118.621C57.4259 111.071 73.1459 116.321 68.1459 123.561C66.6159 125.751 63.9059 123.811 64.4159 121.501C64.9859 118.931 69.4159 119.061 71.2959 119.181C73.2642 119.186 75.1619 119.915 76.6259 121.231C78.3359 122.921 78.5659 125.581 78.9259 127.831C78.9259 127.941 78.8359 128.081 78.7659 127.941H78.7859Z" fill="#BA68C8"/>
<path d="M38.7554 39.5538C43.0754 39.0038 52.3654 42.6438 49.9454 48.5538C48.6554 51.7038 42.8954 53.7238 41.0054 50.1138C40.9648 50.0155 40.964 49.9052 41.0032 49.8063C41.0424 49.7074 41.1184 49.6276 41.2154 49.5838C50.2154 44.4838 59.6954 59.2138 50.1454 64.5838C49.8454 64.7538 49.8554 64.2438 50.0254 64.1138C50.8508 63.5496 51.5552 62.8263 52.0974 61.9863C52.6396 61.1463 53.0086 60.2065 53.1828 59.222C53.357 58.2374 53.3328 57.2281 53.1117 56.253C52.8907 55.278 52.4771 54.3569 51.8954 53.5438C50.9224 51.9904 49.5378 50.7373 47.8954 49.9238C46.6654 49.3438 43.5754 48.5238 42.4254 49.7238C41.9054 50.2838 41.9154 49.5838 42.1854 50.2338C42.4419 50.6198 42.8348 50.8948 43.2854 51.0038C44.2672 51.3156 45.3264 51.2803 46.2854 50.9038C48.2854 50.2038 49.8554 48.3638 49.2854 46.1538C48.2354 41.7238 42.5954 40.1538 38.6454 40.0838C38.3754 40.0838 38.5454 39.5738 38.7554 39.5438V39.5538Z" fill="#BA68C8"/>
<path d="M14.9999 39.6936C14.9999 39.6936 15.2699 44.5336 11.6699 47.2236L7.90991 46.0636C7.90991 46.0636 10.4199 44.8636 11.6699 39.6836L14.9999 39.6936Z" fill="#455A64"/>
<path d="M27.7153 93.2636C27.7153 93.2636 29.9053 97.5836 34.3653 98.1136L37.0453 95.2336C37.0453 95.2336 34.2653 95.4536 30.5953 91.6036L27.7153 93.2636Z" fill="#BA68C8"/>
<path d="M46.3179 5.76332C46.3179 5.76332 48.5079 10.0833 52.9679 10.6133L55.6479 7.73331C55.6479 7.73331 52.8679 7.95332 49.1979 4.10332L46.3179 5.76332Z" fill="#455A64"/>
<path d="M71.1353 67.223C71.1353 67.223 75.9352 67.813 78.8652 64.413L77.9852 60.583C77.9852 60.583 76.6053 63.013 71.3553 63.903L71.1353 67.223Z" fill="#BA68C8"/>
<path d="M231.333 118.313C231.333 118.313 233.523 122.633 237.983 123.163L240.673 120.283C240.673 120.283 237.383 120.793 233.673 116.943L231.333 118.313Z" fill="#455A64"/>
<path d="M0 96.193C0 96.193 0.86 100.963 5 102.743L8.4 100.743C5.99435 99.6576 3.99511 97.8369 2.69 95.543L0 96.193Z" fill="#37474F"/>
</svg>
