<svg width="136" height="57" viewBox="0 0 136 57" fill="none" xmlns="http://www.w3.org/2000/svg">
<g clip-path="url(#clip0_1_504)">
<path d="M2.9915 25.814L6.54794 24.0488L7.35978 3.55547L4.26698 3.43257C2.63027 3.3674 1.25238 4.63916 1.18907 6.27586L0.533646 22.79C0.501992 23.5758 0.785018 24.3411 1.31755 24.9183C1.76257 25.3987 2.35469 25.7041 2.9915 25.814Z" fill="#8342FF"/>
<path d="M19.3419 17.353L16.0667 13.9008C15.9382 13.7649 15.8972 13.5656 15.9624 13.3887C16.0275 13.2118 16.1858 13.0871 16.3739 13.0685L21.1034 12.5694C21.2654 12.5527 21.4088 12.4559 21.4851 12.3143L23.7623 8.13413C23.8536 7.96841 24.0305 7.86787 24.2167 7.87531C24.4047 7.88276 24.5705 7.99634 24.6487 8.16765L26.5833 12.5154C26.6503 12.6644 26.7825 12.7705 26.9445 12.8003L28.6036 13.1094L37.5915 8.65177L37.7461 4.75831L10.9778 3.70068L10.2441 22.2203L19.4611 17.6472C19.4481 17.5392 19.4164 17.4349 19.3419 17.353Z" fill="#8342FF"/>
<path d="M44.3882 6.03945C45.2801 6.03945 46.1347 6.22379 46.9149 6.54778C46.4271 5.67636 45.5221 5.06562 44.4515 5.0228L41.3605 4.8999L41.2842 6.81777L41.4667 6.7284C42.3679 6.27965 43.3808 6.03945 44.3882 6.03945Z" fill="#8342FF"/>
<path d="M1.64718 30.521C0.943335 30.8711 0.407075 31.4893 0.155704 32.2285C-0.0956678 32.9714 -0.0379454 33.787 0.308389 34.4908L8.95929 51.9211C9.47321 52.9639 10.5252 53.5671 11.6145 53.5671C12.0577 53.5671 12.5064 53.4666 12.9291 53.2562L16.6233 51.4277L5.34141 28.6907L1.64718 30.521Z" fill="#8342FF"/>
<path d="M55.6919 28.7374L47.041 11.3052C46.5289 10.2625 45.4732 9.65918 44.3839 9.65918C43.9445 9.65918 43.492 9.75787 43.0693 9.97014L39.377 11.8024L50.6607 34.5394L54.3531 32.709C55.057 32.359 55.5951 31.7426 55.8446 31.0016C56.096 30.2568 56.042 29.4412 55.6919 28.7374Z" fill="#8342FF"/>
<path d="M8.58105 27.0818L19.8648 49.817L47.4208 36.1461L36.137 13.4072L8.58105 27.0818ZM36.9693 36.9524C36.8818 37.1199 36.7049 37.2242 36.5224 37.2224L30.9755 37.0939C30.8135 37.0902 30.6608 37.1665 30.564 37.2968L27.3129 41.788C27.2012 41.9388 27.015 42.0152 26.8288 41.9817C26.6426 41.95 26.4899 41.8178 26.4359 41.6335L24.8476 36.3193C24.8029 36.1647 24.6819 36.0418 24.5273 35.9916L19.2504 34.2878C19.0716 34.2301 18.9394 34.0756 18.9115 33.8894C18.8836 33.6994 18.9655 33.517 19.12 33.409L23.6782 30.2584C23.8123 30.1672 23.8924 30.0145 23.8924 29.8506L23.8793 24.3056C23.8793 24.1175 23.9855 23.9443 24.1549 23.8606C24.3225 23.7768 24.5236 23.7954 24.6726 23.909L29.0818 27.2736C29.2103 27.3723 29.3797 27.4021 29.5343 27.35L34.8075 25.6257C34.9862 25.568 35.1799 25.6164 35.3121 25.7505C35.4424 25.8846 35.489 26.0838 35.4275 26.2607L33.5059 31.735L36.9265 36.4217C37.04 36.5818 37.0531 36.7866 36.9693 36.9524Z" fill="#8342FF"/>
</g>
<path d="M70.22 37.668C69.6787 37.668 69.268 37.4533 68.988 37.024C68.8573 36.8187 68.764 36.576 68.708 36.296C68.652 36.016 68.624 35.7267 68.624 35.428C68.624 35.1293 68.6427 34.8307 68.68 34.532C68.7173 34.2147 68.764 33.9067 68.82 33.608C68.9133 33.1227 69.016 32.684 69.128 32.292C69.2587 31.8813 69.3893 31.4893 69.52 31.116V31.088C69.3707 31.368 69.184 31.676 68.96 32.012C68.736 32.3293 68.5773 32.5627 68.484 32.712C68.3533 32.9173 68.2507 33.02 68.176 33.02C68.1013 33.02 68.064 32.936 68.064 32.768C68.064 32.3947 68.176 31.984 68.4 31.536C68.5493 31.2373 68.7547 30.8547 69.016 30.388C69.2773 29.9027 69.548 29.38 69.828 28.82C70.108 28.26 70.3507 27.7187 70.556 27.196H68.68C68.5867 27.196 68.568 27.1213 68.624 26.972C68.68 26.8227 68.764 26.6827 68.876 26.552C68.988 26.4027 69.072 26.328 69.128 26.328H71.256C71.4613 25.8427 71.6947 25.32 71.956 24.76C72.236 24.2 72.544 23.6773 72.88 23.192C73.2347 22.688 73.6173 22.2773 74.028 21.96C74.4387 21.6427 74.8773 21.484 75.344 21.484C75.5493 21.484 75.8013 21.484 76.1 21.484C76.4173 21.484 76.6133 21.4747 76.688 21.456C76.296 21.7173 75.8387 22.24 75.316 23.024C74.7933 23.7893 74.224 24.8907 73.608 26.328H76.436C76.492 26.328 76.4733 26.4027 76.38 26.552C76.2867 26.6827 76.1653 26.8227 76.016 26.972C75.8853 27.1213 75.7547 27.196 75.624 27.196H73.216C72.9733 27.812 72.7027 28.484 72.404 29.212C72.124 29.94 71.8627 30.6587 71.62 31.368C71.396 32.0587 71.228 32.6933 71.116 33.272C71.0413 33.6267 71.004 33.9533 71.004 34.252C71.004 34.9613 71.228 35.316 71.676 35.316C71.9747 35.316 72.3293 35.1667 72.74 34.868C73.1507 34.5693 73.5613 34.1587 73.972 33.636C74.3453 33.1507 74.7 32.628 75.036 32.068C75.3907 31.508 75.6893 30.9947 75.932 30.528C76.0067 30.3973 76.072 30.332 76.128 30.332C76.24 30.332 76.296 30.4813 76.296 30.78C76.296 30.9293 76.268 31.1067 76.212 31.312C76.1747 31.4987 76.1 31.6853 75.988 31.872C75.7267 32.32 75.4187 32.8147 75.064 33.356C74.7093 33.8787 74.3453 34.4013 73.972 34.924C73.7107 35.26 73.3653 35.6427 72.936 36.072C72.5253 36.5013 72.0773 36.8747 71.592 37.192C71.1253 37.5093 70.668 37.668 70.22 37.668ZM80.2167 24.06C79.7313 23.892 79.4887 23.5747 79.4887 23.108C79.4887 22.6787 79.6567 22.24 79.9927 21.792C80.3473 21.3253 80.73 21.0267 81.1407 20.896C81.234 20.8587 81.3087 20.84 81.3647 20.84C81.4393 20.84 81.514 20.84 81.5887 20.84C81.906 20.84 82.1673 20.9333 82.3727 21.12C82.578 21.3067 82.6807 21.5213 82.6807 21.764C82.6807 22.1 82.5033 22.38 82.1487 22.604C81.8687 22.5667 81.598 22.632 81.3367 22.8C81.0753 22.968 80.842 23.1733 80.6367 23.416C80.45 23.6587 80.31 23.8733 80.2167 24.06ZM75.4007 37.668C75.158 37.668 74.9247 37.612 74.7007 37.5C74.4767 37.4067 74.29 37.2107 74.1407 36.912C73.9353 36.464 73.8327 35.932 73.8327 35.316C73.8327 34.644 73.9353 33.8973 74.1407 33.076C74.346 32.236 74.6167 31.3773 74.9527 30.5C75.0833 30.1827 75.2513 29.7907 75.4567 29.324C75.662 28.8573 75.9047 28.3907 76.1847 27.924C76.4647 27.4573 76.782 27.0747 77.1367 26.776C77.51 26.4587 77.9113 26.3 78.3407 26.3C78.546 26.3 78.8353 26.3093 79.2087 26.328C79.582 26.3467 79.8527 26.3467 80.0207 26.328C79.9087 26.4027 79.778 26.552 79.6287 26.776C79.4793 27 79.3393 27.2333 79.2087 27.476C79.078 27.7 78.9753 27.8773 78.9007 28.008C78.4153 28.9787 77.958 29.94 77.5287 30.892C77.0993 31.844 76.7727 32.7587 76.5487 33.636C76.5113 33.7853 76.4833 33.9347 76.4647 34.084C76.446 34.2333 76.4367 34.3733 76.4367 34.504C76.4367 35.0453 76.614 35.316 76.9687 35.316C77.118 35.316 77.2767 35.2787 77.4447 35.204C77.6313 35.1107 77.846 34.9707 78.0887 34.784C78.518 34.448 78.8913 34.0653 79.2087 33.636C79.582 33.1507 79.9367 32.6373 80.2727 32.096C80.6087 31.536 80.898 31.0227 81.1407 30.556C81.234 30.4067 81.2993 30.332 81.3367 30.332C81.4487 30.332 81.5047 30.4907 81.5047 30.808C81.5047 30.9573 81.4767 31.1347 81.4207 31.34C81.3833 31.5267 81.318 31.704 81.2247 31.872C80.9633 32.32 80.6553 32.8147 80.3007 33.356C79.946 33.8973 79.582 34.42 79.2087 34.924C78.9473 35.2787 78.602 35.6707 78.1727 36.1C77.7433 36.5293 77.286 36.9027 76.8007 37.22C76.3153 37.5187 75.8487 37.668 75.4007 37.668ZM82.955 37.78C82.0776 37.78 81.3683 37.6213 80.827 37.304C80.2856 36.968 79.8936 36.5293 79.651 35.988C79.427 35.428 79.315 34.8307 79.315 34.196C79.315 33.5613 79.4083 32.9173 79.595 32.264C79.7816 31.6107 80.0336 30.9947 80.351 30.416C81.0043 29.24 81.807 28.2693 82.759 27.504C83.7296 26.7387 84.915 26.356 86.315 26.356C87.1923 26.356 87.8736 26.58 88.359 27.028C88.8443 27.476 89.087 27.9987 89.087 28.596C89.087 29.156 88.919 29.6693 88.583 30.136C88.2656 30.6027 87.8363 30.836 87.295 30.836C86.9963 30.836 86.735 30.752 86.511 30.584C86.287 30.416 86.175 30.1547 86.175 29.8C86.175 29.744 86.175 29.688 86.175 29.632C86.1936 29.5573 86.2123 29.4827 86.231 29.408C86.343 29.3893 86.5016 29.3613 86.707 29.324C86.931 29.268 87.1083 29.1373 87.239 28.932C87.4816 28.596 87.603 28.26 87.603 27.924C87.603 27.7187 87.5376 27.5507 87.407 27.42C87.295 27.2707 87.099 27.196 86.819 27.196C86.315 27.196 85.8016 27.3827 85.279 27.756C84.7563 28.1107 84.2616 28.5867 83.795 29.184C83.347 29.7813 82.955 30.4347 82.619 31.144C82.0963 32.2827 81.835 33.328 81.835 34.28C81.835 34.9707 81.9936 35.54 82.311 35.988C82.6283 36.4173 83.1323 36.632 83.823 36.632C84.7003 36.632 85.5216 36.3333 86.287 35.736C87.071 35.12 87.771 34.4107 88.387 33.608C88.7976 33.0853 89.1616 32.5533 89.479 32.012C89.815 31.4707 90.095 30.976 90.319 30.528C90.3936 30.3973 90.459 30.332 90.515 30.332C90.627 30.332 90.683 30.4907 90.683 30.808C90.683 30.9573 90.655 31.1347 90.599 31.34C90.5616 31.5267 90.4963 31.704 90.403 31.872C90.0856 32.3947 89.759 32.9173 89.423 33.44C89.1056 33.9627 88.7603 34.4573 88.387 34.924C87.7523 35.7453 87.0056 36.4267 86.147 36.968C85.2883 37.5093 84.2243 37.78 82.955 37.78ZM86.7461 37.5C86.9515 37.1267 87.1848 36.6507 87.4461 36.072C87.6888 35.4933 87.9315 34.868 88.1741 34.196C88.4355 33.5053 88.6688 32.8427 88.8741 32.208C89.3408 30.7707 89.8168 29.352 90.3021 27.952C90.8061 26.552 91.3101 25.3387 91.8141 24.312C92.0195 23.864 92.2808 23.3227 92.5981 22.688C92.9155 22.0347 93.2701 21.3627 93.6621 20.672C94.0728 19.9813 94.5115 19.3373 94.9781 18.74C95.4635 18.124 95.9768 17.6293 96.5181 17.256C97.0781 16.8827 97.6568 16.696 98.2541 16.696C98.8515 16.696 99.2528 16.8267 99.4581 17.088C99.6821 17.3493 99.7941 17.676 99.7941 18.068C99.7941 18.4973 99.7008 18.9547 99.5141 19.44C99.3275 19.9253 99.1501 20.3267 98.9821 20.644C98.6088 21.3533 98.1235 22.156 97.5261 23.052C96.9475 23.9293 96.3408 24.7507 95.7061 25.516C95.3888 25.908 95.0061 26.356 94.5581 26.86C94.1101 27.3453 93.6621 27.812 93.2141 28.26C92.7848 28.708 92.4115 29.0907 92.0941 29.408L91.5901 30.808C92.0755 30.1733 92.5888 29.604 93.1301 29.1C93.6715 28.596 94.2595 28.092 94.8941 27.588C95.3608 27.2147 95.8461 26.9347 96.3501 26.748C96.8728 26.5613 97.3488 26.468 97.7781 26.468C98.0955 26.468 98.3848 26.5147 98.6461 26.608C98.9261 26.7013 99.1315 26.8507 99.2621 27.056C99.3555 27.1867 99.4208 27.3267 99.4581 27.476C99.4955 27.6253 99.5141 27.7747 99.5141 27.924C99.5141 28.2227 99.4581 28.512 99.3461 28.792C99.1035 29.3707 98.7488 29.8653 98.2821 30.276C97.8341 30.668 97.3208 30.9667 96.7421 31.172C96.5368 31.2467 96.2661 31.3307 95.9301 31.424C95.5941 31.5173 95.2955 31.5827 95.0341 31.62C95.0715 31.8813 95.0995 32.1427 95.1181 32.404C95.1555 32.6653 95.1928 32.9267 95.2301 33.188C95.3421 33.8227 95.4821 34.364 95.6501 34.812C95.8368 35.26 96.1261 35.484 96.5181 35.484C96.8728 35.484 97.3488 35.2507 97.9461 34.784C98.3755 34.448 98.7488 34.0653 99.0661 33.636C99.4395 33.1507 99.7941 32.6373 100.13 32.096C100.466 31.536 100.755 31.0227 100.998 30.556C101.073 30.4253 101.138 30.36 101.194 30.36C101.306 30.36 101.362 30.5093 101.362 30.808C101.362 30.976 101.334 31.1627 101.278 31.368C101.241 31.5547 101.166 31.7413 101.054 31.928C100.793 32.376 100.485 32.8613 100.13 33.384C99.7941 33.9067 99.4395 34.42 99.0661 34.924C98.8608 35.204 98.5995 35.512 98.2821 35.848C97.9648 36.184 97.6288 36.492 97.2741 36.772C96.9568 37.0147 96.5741 37.2387 96.1261 37.444C95.6781 37.6307 95.2395 37.724 94.8101 37.724C94.4741 37.724 94.1568 37.6493 93.8581 37.5C93.5781 37.3507 93.3448 37.0987 93.1581 36.744C92.9528 36.352 92.7941 35.8853 92.6821 35.344C92.5701 34.8027 92.5141 34.2613 92.5141 33.72C92.5141 33.4213 92.5235 33.132 92.5421 32.852C92.5795 32.5533 92.6355 32.2827 92.7101 32.04C92.8035 31.7227 92.8968 31.508 92.9901 31.396C93.0835 31.284 93.2048 31.228 93.3541 31.228C93.8955 31.2093 94.4275 31.1347 94.9501 31.004C95.4728 30.8547 95.9115 30.6213 96.2661 30.304C96.6955 29.9307 96.9101 29.5107 96.9101 29.044C96.9101 28.8387 96.8355 28.6613 96.6861 28.512C96.5555 28.344 96.3315 28.26 96.0141 28.26C95.5848 28.26 95.1648 28.4 94.7541 28.68C94.3435 28.96 93.9515 29.324 93.5781 29.772C93.2048 30.22 92.8595 30.6867 92.5421 31.172C92.2248 31.6387 91.9541 32.068 91.7301 32.46C91.5621 32.74 91.3755 33.104 91.1701 33.552C90.9648 34 90.7501 34.4667 90.5261 34.952C90.3021 35.4373 90.0781 35.876 89.8541 36.268C89.6301 36.66 89.4155 36.9493 89.2101 37.136C88.9675 37.3787 88.7155 37.5 88.4541 37.5H86.7461ZM92.8221 27.504C93.7555 26.4213 94.6701 25.2827 95.5661 24.088C96.4621 22.8933 97.2275 21.6707 97.8621 20.42C97.9181 20.3267 98.0115 20.1307 98.1421 19.832C98.2728 19.5333 98.3941 19.2067 98.5061 18.852C98.6368 18.4973 98.7021 18.1893 98.7021 17.928C98.7021 17.592 98.5715 17.424 98.3101 17.424C98.0488 17.424 97.7315 17.648 97.3581 18.096C97.0035 18.544 96.6208 19.1413 96.2101 19.888C95.8181 20.616 95.4168 21.428 95.0061 22.324C94.5955 23.2013 94.2035 24.0973 93.8301 25.012C93.4568 25.908 93.1208 26.7387 92.8221 27.504ZM105.706 37.108C104.847 37.556 103.942 37.78 102.99 37.78C102.187 37.78 101.441 37.584 100.75 37.192C100.059 36.8 99.5925 36.1747 99.3498 35.316C99.2378 34.924 99.1818 34.5133 99.1818 34.084C99.1818 33.3747 99.3032 32.6467 99.5458 31.9C99.8072 31.1347 100.143 30.4347 100.554 29.8C101.189 28.8107 101.991 27.9893 102.962 27.336C103.933 26.6827 105.006 26.356 106.182 26.356C107.059 26.356 107.741 26.58 108.226 27.028C108.711 27.476 108.954 27.9987 108.954 28.596C108.954 29.3053 108.711 29.9307 108.226 30.472C107.759 30.9947 107.143 31.396 106.378 31.676C106.005 31.8067 105.603 31.9093 105.174 31.984C104.763 32.04 104.371 32.068 103.998 32.068C103.233 32.068 102.645 31.9653 102.234 31.76C101.879 32.6747 101.702 33.5147 101.702 34.28C101.702 34.9707 101.861 35.54 102.178 35.988C102.495 36.4173 102.999 36.632 103.69 36.632C104.269 36.632 104.838 36.4733 105.398 36.156C105.977 35.8387 106.509 35.4467 106.994 34.98C107.498 34.5133 107.918 34.0653 108.254 33.636C108.515 33.3187 108.739 33.02 108.926 32.74C109.113 32.46 109.309 32.1427 109.514 31.788C109.719 31.4147 109.962 30.9573 110.242 30.416C110.317 30.2853 110.382 30.22 110.438 30.22C110.55 30.22 110.606 30.3693 110.606 30.668C110.606 30.836 110.578 31.0227 110.522 31.228C110.485 31.4147 110.41 31.6107 110.298 31.816C110.037 32.2827 109.719 32.796 109.346 33.356C108.991 33.8973 108.627 34.42 108.254 34.924C107.918 35.372 107.535 35.7827 107.106 36.156C106.677 36.5293 106.21 36.8467 105.706 37.108ZM103.158 31.144C103.251 31.2 103.354 31.2373 103.466 31.256C103.578 31.2747 103.69 31.284 103.802 31.284C104.175 31.284 104.549 31.2 104.922 31.032C105.295 30.8453 105.613 30.6587 105.874 30.472C106.303 30.1733 106.667 29.8187 106.966 29.408C107.265 28.9973 107.433 28.5307 107.47 28.008C107.489 27.784 107.433 27.5973 107.302 27.448C107.19 27.28 106.985 27.196 106.686 27.196C106.537 27.196 106.35 27.224 106.126 27.28C105.827 27.3547 105.529 27.4947 105.23 27.7C104.931 27.9053 104.642 28.148 104.362 28.428C104.269 28.5213 104.101 28.708 103.858 28.988C103.634 29.2493 103.419 29.548 103.214 29.884C103.009 30.2013 102.906 30.4813 102.906 30.724C102.906 30.9293 102.99 31.0693 103.158 31.144ZM110.645 37.668C110.104 37.668 109.693 37.4533 109.413 37.024C109.282 36.8187 109.189 36.576 109.133 36.296C109.077 36.016 109.049 35.7267 109.049 35.428C109.049 35.1293 109.068 34.8307 109.105 34.532C109.142 34.2147 109.189 33.9067 109.245 33.608C109.338 33.1227 109.441 32.684 109.553 32.292C109.684 31.8813 109.814 31.4893 109.945 31.116V31.088C109.796 31.368 109.609 31.676 109.385 32.012C109.161 32.3293 109.002 32.5627 108.909 32.712C108.778 32.9173 108.676 33.02 108.601 33.02C108.526 33.02 108.489 32.936 108.489 32.768C108.489 32.3947 108.601 31.984 108.825 31.536C108.974 31.2373 109.18 30.8547 109.441 30.388C109.702 29.9027 109.973 29.38 110.253 28.82C110.533 28.26 110.776 27.7187 110.981 27.196H109.105C109.012 27.196 108.993 27.1213 109.049 26.972C109.105 26.8227 109.189 26.6827 109.301 26.552C109.413 26.4027 109.497 26.328 109.553 26.328H111.681C111.886 25.8427 112.12 25.32 112.381 24.76C112.661 24.2 112.969 23.6773 113.305 23.192C113.66 22.688 114.042 22.2773 114.453 21.96C114.864 21.6427 115.302 21.484 115.769 21.484C115.974 21.484 116.226 21.484 116.525 21.484C116.842 21.484 117.038 21.4747 117.113 21.456C116.721 21.7173 116.264 22.24 115.741 23.024C115.218 23.7893 114.649 24.8907 114.033 26.328H116.861C116.917 26.328 116.898 26.4027 116.805 26.552C116.712 26.6827 116.59 26.8227 116.441 26.972C116.31 27.1213 116.18 27.196 116.049 27.196H113.641C113.398 27.812 113.128 28.484 112.829 29.212C112.549 29.94 112.288 30.6587 112.045 31.368C111.821 32.0587 111.653 32.6933 111.541 33.272C111.466 33.6267 111.429 33.9533 111.429 34.252C111.429 34.9613 111.653 35.316 112.101 35.316C112.4 35.316 112.754 35.1667 113.165 34.868C113.576 34.5693 113.986 34.1587 114.397 33.636C114.77 33.1507 115.125 32.628 115.461 32.068C115.816 31.508 116.114 30.9947 116.357 30.528C116.432 30.3973 116.497 30.332 116.553 30.332C116.665 30.332 116.721 30.4813 116.721 30.78C116.721 30.9293 116.693 31.1067 116.637 31.312C116.6 31.4987 116.525 31.6853 116.413 31.872C116.152 32.32 115.844 32.8147 115.489 33.356C115.134 33.8787 114.77 34.4013 114.397 34.924C114.136 35.26 113.79 35.6427 113.361 36.072C112.95 36.5013 112.502 36.8747 112.017 37.192C111.55 37.5093 111.093 37.668 110.645 37.668ZM116.778 37.668C116.236 37.668 115.826 37.4533 115.546 37.024C115.415 36.8187 115.322 36.576 115.266 36.296C115.21 36.016 115.182 35.7267 115.182 35.428C115.182 35.1293 115.2 34.8307 115.238 34.532C115.275 34.2147 115.322 33.9067 115.378 33.608C115.471 33.1227 115.574 32.684 115.686 32.292C115.816 31.8813 115.947 31.4893 116.078 31.116V31.088C115.928 31.368 115.742 31.676 115.518 32.012C115.294 32.3293 115.135 32.5627 115.042 32.712C114.911 32.9173 114.808 33.02 114.734 33.02C114.659 33.02 114.622 32.936 114.622 32.768C114.622 32.3947 114.734 31.984 114.958 31.536C115.107 31.2373 115.312 30.8547 115.574 30.388C115.835 29.9027 116.106 29.38 116.386 28.82C116.666 28.26 116.908 27.7187 117.114 27.196H115.238C115.144 27.196 115.126 27.1213 115.182 26.972C115.238 26.8227 115.322 26.6827 115.434 26.552C115.546 26.4027 115.63 26.328 115.686 26.328H117.814C118.019 25.8427 118.252 25.32 118.514 24.76C118.794 24.2 119.102 23.6773 119.438 23.192C119.792 22.688 120.175 22.2773 120.586 21.96C120.996 21.6427 121.435 21.484 121.902 21.484C122.107 21.484 122.359 21.484 122.658 21.484C122.975 21.484 123.171 21.4747 123.246 21.456C122.854 21.7173 122.396 22.24 121.874 23.024C121.351 23.7893 120.782 24.8907 120.166 26.328H122.994C123.05 26.328 123.031 26.4027 122.938 26.552C122.844 26.6827 122.723 26.8227 122.574 26.972C122.443 27.1213 122.312 27.196 122.182 27.196H119.774C119.531 27.812 119.26 28.484 118.962 29.212C118.682 29.94 118.42 30.6587 118.178 31.368C117.954 32.0587 117.786 32.6933 117.674 33.272C117.599 33.6267 117.562 33.9533 117.562 34.252C117.562 34.9613 117.786 35.316 118.234 35.316C118.532 35.316 118.887 35.1667 119.298 34.868C119.708 34.5693 120.119 34.1587 120.53 33.636C120.903 33.1507 121.258 32.628 121.594 32.068C121.948 31.508 122.247 30.9947 122.49 30.528C122.564 30.3973 122.63 30.332 122.686 30.332C122.798 30.332 122.854 30.4813 122.854 30.78C122.854 30.9293 122.826 31.1067 122.77 31.312C122.732 31.4987 122.658 31.6853 122.546 31.872C122.284 32.32 121.976 32.8147 121.622 33.356C121.267 33.8787 120.903 34.4013 120.53 34.924C120.268 35.26 119.923 35.6427 119.494 36.072C119.083 36.5013 118.635 36.8747 118.15 37.192C117.683 37.5093 117.226 37.668 116.778 37.668ZM129.182 37.668C128.604 37.668 128.202 37.444 127.978 36.996C127.773 36.548 127.67 35.9973 127.67 35.344C127.67 34.7467 127.726 34.1587 127.838 33.58C127.894 33.3187 127.95 33.0573 128.006 32.796C128.081 32.516 128.165 32.2267 128.258 31.928C127.941 32.5067 127.605 33.0667 127.25 33.608C126.914 34.1493 126.569 34.6253 126.214 35.036C125.617 35.764 124.982 36.3707 124.31 36.856C123.657 37.3413 123.004 37.584 122.35 37.584C121.828 37.584 121.38 37.3973 121.006 37.024C120.652 36.632 120.474 35.96 120.474 35.008C120.474 34.0373 120.642 33.0387 120.978 32.012C121.314 30.9853 121.781 30.0333 122.378 29.156C122.994 28.26 123.713 27.5413 124.534 27C125.374 26.4587 126.289 26.188 127.278 26.188C127.596 26.188 127.941 26.2347 128.314 26.328C128.688 26.4213 129.033 26.5987 129.35 26.86C129.668 27.1027 129.882 27.448 129.994 27.896C130.013 27.8587 130.032 27.8307 130.05 27.812C130.088 27.7933 130.116 27.7747 130.134 27.756C130.396 27.3453 130.694 27 131.03 26.72C131.366 26.44 131.74 26.3 132.15 26.3C132.356 26.3 132.645 26.3093 133.018 26.328C133.392 26.3467 133.662 26.3467 133.83 26.328C133.737 26.4027 133.606 26.552 133.438 26.776C133.289 27 133.149 27.2333 133.018 27.476C132.888 27.7 132.785 27.8773 132.71 28.008C132.206 28.9787 131.749 29.94 131.338 30.892C130.928 31.844 130.61 32.7587 130.386 33.636C130.33 33.8227 130.293 34 130.274 34.168C130.256 34.3173 130.246 34.4667 130.246 34.616C130.246 35.1013 130.405 35.344 130.722 35.344C131.021 35.344 131.394 35.1573 131.842 34.784C132.496 34.2613 133.065 33.608 133.55 32.824C134.054 32.04 134.493 31.284 134.866 30.556C134.941 30.4253 135.006 30.36 135.062 30.36C135.174 30.36 135.23 30.5187 135.23 30.836C135.23 30.9853 135.202 31.1533 135.146 31.34C135.109 31.5267 135.044 31.704 134.95 31.872C134.689 32.32 134.344 32.8707 133.914 33.524C133.504 34.1773 133.037 34.8213 132.514 35.456C131.992 36.072 131.441 36.5947 130.862 37.024C130.302 37.4533 129.742 37.668 129.182 37.668ZM123.61 35.232C123.666 35.2507 123.75 35.26 123.862 35.26C124.217 35.26 124.6 35.1107 125.01 34.812C125.421 34.5133 125.832 34.1307 126.242 33.664C126.653 33.1787 127.017 32.6933 127.334 32.208C128.156 30.9013 128.762 29.9213 129.154 29.268C129.546 28.6147 129.77 28.2413 129.826 28.148C129.733 27.8307 129.565 27.5973 129.322 27.448C129.098 27.2987 128.828 27.224 128.51 27.224C128.1 27.224 127.661 27.336 127.194 27.56C126.746 27.784 126.364 28.0547 126.046 28.372C125.561 28.8573 125.094 29.4827 124.646 30.248C124.217 31.0133 123.862 31.7693 123.582 32.516C123.321 33.2627 123.19 33.888 123.19 34.392C123.19 34.8587 123.33 35.1387 123.61 35.232Z" fill="#222222"/>
<defs>
<clipPath id="clip0_1_504">
<rect width="56" height="56" fill="white" transform="translate(0 0.5)"/>
</clipPath>
</defs>
</svg>
