<svg width="185" height="57" viewBox="0 0 185 57" fill="none" xmlns="http://www.w3.org/2000/svg">
<g clip-path="url(#clip0_1_311)">
<path d="M3.54228 26.0581L7.09873 24.2929L7.91056 3.79961L4.81776 3.67671C3.18105 3.61154 1.80316 4.8833 1.73986 6.52L1.08443 23.0342C1.05277 23.82 1.3358 24.5852 1.86833 25.1625C2.31336 25.6429 2.90547 25.9482 3.54228 26.0581Z" fill="#8342FF"/>
<path d="M19.8927 17.5971L16.6174 14.1449C16.489 14.009 16.448 13.8098 16.5132 13.6329C16.5783 13.456 16.7366 13.3312 16.9247 13.3126L21.6542 12.8136C21.8162 12.7968 21.9595 12.7 22.0359 12.5585L24.3131 8.37827C24.4044 8.21255 24.5813 8.11201 24.7675 8.11945C24.9555 8.1269 25.1212 8.24049 25.1994 8.41179L27.1341 12.7596C27.2011 12.9085 27.3333 13.0147 27.4953 13.0445L29.1544 13.3536L38.1423 8.89591L38.2968 5.00245L11.5286 3.94482L10.7949 22.4644L20.0119 17.8913C19.9988 17.7833 19.9672 17.679 19.8927 17.5971Z" fill="#8342FF"/>
<path d="M44.9389 6.28359C45.8308 6.28359 46.6855 6.46793 47.4657 6.79192C46.9778 5.9205 46.0729 5.30976 45.0022 5.26694L41.9113 5.14404L41.835 7.06191L42.0174 6.97254C42.9187 6.52379 43.9316 6.28359 44.9389 6.28359Z" fill="#8342FF"/>
<path d="M2.19796 30.7654C1.49412 31.1155 0.957857 31.7337 0.706485 32.4729C0.455113 33.2158 0.512836 34.0314 0.85917 34.7352L9.51008 52.1655C10.024 53.2082 11.076 53.8115 12.1653 53.8115C12.6085 53.8115 13.0572 53.711 13.4799 53.5006L17.1741 51.6721L5.89219 28.9351L2.19796 30.7654Z" fill="#8342FF"/>
<path d="M56.2427 28.9815L47.5918 11.5493C47.0797 10.5066 46.024 9.90332 44.9347 9.90332C44.4953 9.90332 44.0428 10.002 43.6201 10.2143L39.9277 12.0465L51.2115 34.7835L54.9039 32.9532C55.6077 32.6031 56.1459 31.9868 56.3954 31.2457C56.6467 30.5009 56.5927 29.6853 56.2427 28.9815Z" fill="#8342FF"/>
<path d="M9.13184 27.326L20.4156 50.0611L47.9715 36.3903L36.6877 13.6514L9.13184 27.326ZM37.5201 37.1965C37.4326 37.3641 37.2557 37.4684 37.0732 37.4665L31.5262 37.338C31.3643 37.3343 31.2116 37.4106 31.1147 37.541L27.8637 42.0321C27.752 42.183 27.5658 42.2593 27.3795 42.2258C27.1933 42.1941 27.0407 42.0619 26.9867 41.8776L25.3984 36.5634C25.3537 36.4089 25.2327 36.286 25.0781 36.2357L19.8012 34.532C19.6224 34.4742 19.4902 34.3197 19.4623 34.1335C19.4343 33.9436 19.5163 33.7611 19.6708 33.6531L24.229 30.5026C24.3631 30.4113 24.4432 30.2586 24.4432 30.0948L24.4301 24.5497C24.4301 24.3617 24.5363 24.1885 24.7057 24.1047C24.8733 24.0209 25.0744 24.0395 25.2233 24.1531L29.6326 27.5178C29.7611 27.6165 29.9305 27.6462 30.0851 27.5941L35.3583 25.8699C35.537 25.8122 35.7307 25.8606 35.8629 25.9946C35.9932 26.1287 36.0398 26.3279 35.9783 26.5048L34.0567 31.9791L37.4772 36.6658C37.5908 36.826 37.6039 37.0308 37.5201 37.1965Z" fill="#8342FF"/>
</g>
<path d="M70.7708 37.9121C70.2294 37.9121 69.8188 37.6975 69.5388 37.2681C69.4081 37.0628 69.3148 36.8201 69.2588 36.5401C69.2028 36.2601 69.1748 35.9708 69.1748 35.6721C69.1748 35.3735 69.1934 35.0748 69.2308 34.7761C69.2681 34.4588 69.3148 34.1508 69.3708 33.8521C69.4641 33.3668 69.5668 32.9281 69.6788 32.5361C69.8094 32.1255 69.9401 31.7335 70.0708 31.3601V31.3321C69.9214 31.6121 69.7348 31.9201 69.5108 32.2561C69.2868 32.5735 69.1281 32.8068 69.0348 32.9561C68.9041 33.1615 68.8014 33.2641 68.7268 33.2641C68.6521 33.2641 68.6148 33.1801 68.6148 33.0121C68.6148 32.6388 68.7268 32.2281 68.9508 31.7801C69.1001 31.4815 69.3054 31.0988 69.5668 30.6321C69.8281 30.1468 70.0988 29.6241 70.3788 29.0641C70.6588 28.5041 70.9014 27.9628 71.1068 27.4401H69.2308C69.1374 27.4401 69.1188 27.3655 69.1748 27.2161C69.2308 27.0668 69.3148 26.9268 69.4268 26.7961C69.5388 26.6468 69.6228 26.5721 69.6788 26.5721H71.8068C72.0121 26.0868 72.2454 25.5641 72.5068 25.0041C72.7868 24.4441 73.0948 23.9215 73.4308 23.4361C73.7854 22.9321 74.1681 22.5215 74.5788 22.2041C74.9894 21.8868 75.4281 21.7281 75.8948 21.7281C76.1001 21.7281 76.3521 21.7281 76.6508 21.7281C76.9681 21.7281 77.1641 21.7188 77.2388 21.7001C76.8468 21.9615 76.3894 22.4841 75.8668 23.2681C75.3441 24.0335 74.7748 25.1348 74.1588 26.5721H76.9868C77.0428 26.5721 77.0241 26.6468 76.9308 26.7961C76.8374 26.9268 76.7161 27.0668 76.5668 27.2161C76.4361 27.3655 76.3054 27.4401 76.1748 27.4401H73.7668C73.5241 28.0561 73.2534 28.7281 72.9548 29.4561C72.6748 30.1841 72.4134 30.9028 72.1708 31.6121C71.9468 32.3028 71.7788 32.9375 71.6668 33.5161C71.5921 33.8708 71.5548 34.1975 71.5548 34.4961C71.5548 35.2055 71.7788 35.5601 72.2268 35.5601C72.5254 35.5601 72.8801 35.4108 73.2908 35.1121C73.7014 34.8135 74.1121 34.4028 74.5228 33.8801C74.8961 33.3948 75.2508 32.8721 75.5868 32.3121C75.9414 31.7521 76.2401 31.2388 76.4828 30.7721C76.5574 30.6415 76.6228 30.5761 76.6788 30.5761C76.7908 30.5761 76.8468 30.7255 76.8468 31.0241C76.8468 31.1735 76.8188 31.3508 76.7628 31.5561C76.7254 31.7428 76.6508 31.9295 76.5388 32.1161C76.2774 32.5641 75.9694 33.0588 75.6148 33.6001C75.2601 34.1228 74.8961 34.6455 74.5228 35.1681C74.2614 35.5041 73.9161 35.8868 73.4868 36.3161C73.0761 36.7455 72.6281 37.1188 72.1428 37.4361C71.6761 37.7535 71.2188 37.9121 70.7708 37.9121ZM80.7674 24.3041C80.2821 24.1361 80.0394 23.8188 80.0394 23.3521C80.0394 22.9228 80.2074 22.4841 80.5434 22.0361C80.8981 21.5695 81.2808 21.2708 81.6914 21.1401C81.7848 21.1028 81.8594 21.0841 81.9154 21.0841C81.9901 21.0841 82.0648 21.0841 82.1394 21.0841C82.4568 21.0841 82.7181 21.1775 82.9234 21.3641C83.1288 21.5508 83.2314 21.7655 83.2314 22.0081C83.2314 22.3441 83.0541 22.6241 82.6994 22.8481C82.4194 22.8108 82.1488 22.8761 81.8874 23.0441C81.6261 23.2121 81.3928 23.4175 81.1874 23.6601C81.0008 23.9028 80.8608 24.1175 80.7674 24.3041ZM75.9514 37.9121C75.7088 37.9121 75.4754 37.8561 75.2514 37.7441C75.0274 37.6508 74.8408 37.4548 74.6914 37.1561C74.4861 36.7081 74.3834 36.1761 74.3834 35.5601C74.3834 34.8881 74.4861 34.1415 74.6914 33.3201C74.8968 32.4801 75.1674 31.6215 75.5034 30.7441C75.6341 30.4268 75.8021 30.0348 76.0074 29.5681C76.2128 29.1015 76.4554 28.6348 76.7354 28.1681C77.0154 27.7015 77.3328 27.3188 77.6874 27.0201C78.0608 26.7028 78.4621 26.5441 78.8914 26.5441C79.0968 26.5441 79.3861 26.5535 79.7594 26.5721C80.1328 26.5908 80.4034 26.5908 80.5714 26.5721C80.4594 26.6468 80.3288 26.7961 80.1794 27.0201C80.0301 27.2441 79.8901 27.4775 79.7594 27.7201C79.6288 27.9441 79.5261 28.1215 79.4514 28.2521C78.9661 29.2228 78.5088 30.1841 78.0794 31.1361C77.6501 32.0881 77.3234 33.0028 77.0994 33.8801C77.0621 34.0295 77.0341 34.1788 77.0154 34.3281C76.9968 34.4775 76.9874 34.6175 76.9874 34.7481C76.9874 35.2895 77.1648 35.5601 77.5194 35.5601C77.6688 35.5601 77.8274 35.5228 77.9954 35.4481C78.1821 35.3548 78.3968 35.2148 78.6394 35.0281C79.0688 34.6921 79.4421 34.3095 79.7594 33.8801C80.1328 33.3948 80.4874 32.8815 80.8234 32.3401C81.1594 31.7801 81.4488 31.2668 81.6914 30.8001C81.7848 30.6508 81.8501 30.5761 81.8874 30.5761C81.9994 30.5761 82.0554 30.7348 82.0554 31.0521C82.0554 31.2015 82.0274 31.3788 81.9714 31.5841C81.9341 31.7708 81.8688 31.9481 81.7754 32.1161C81.5141 32.5641 81.2061 33.0588 80.8514 33.6001C80.4968 34.1415 80.1328 34.6641 79.7594 35.1681C79.4981 35.5228 79.1528 35.9148 78.7234 36.3441C78.2941 36.7735 77.8368 37.1468 77.3514 37.4641C76.8661 37.7628 76.3994 37.9121 75.9514 37.9121ZM83.5057 38.0241C82.6284 38.0241 81.9191 37.8655 81.3777 37.5481C80.8364 37.2121 80.4444 36.7735 80.2017 36.2321C79.9777 35.6721 79.8657 35.0748 79.8657 34.4401C79.8657 33.8055 79.9591 33.1615 80.1457 32.5081C80.3324 31.8548 80.5844 31.2388 80.9017 30.6601C81.5551 29.4841 82.3577 28.5135 83.3097 27.7481C84.2804 26.9828 85.4657 26.6001 86.8657 26.6001C87.7431 26.6001 88.4244 26.8241 88.9098 27.2721C89.3951 27.7201 89.6378 28.2428 89.6378 28.8401C89.6378 29.4001 89.4698 29.9135 89.1337 30.3801C88.8164 30.8468 88.3871 31.0801 87.8457 31.0801C87.5471 31.0801 87.2857 30.9961 87.0617 30.8281C86.8378 30.6601 86.7258 30.3988 86.7258 30.0441C86.7258 29.9881 86.7258 29.9321 86.7258 29.8761C86.7444 29.8015 86.7631 29.7268 86.7818 29.6521C86.8937 29.6335 87.0524 29.6055 87.2577 29.5681C87.4817 29.5121 87.6591 29.3815 87.7897 29.1761C88.0324 28.8401 88.1538 28.5041 88.1538 28.1681C88.1538 27.9628 88.0884 27.7948 87.9578 27.6641C87.8457 27.5148 87.6497 27.4401 87.3698 27.4401C86.8657 27.4401 86.3524 27.6268 85.8297 28.0001C85.3071 28.3548 84.8124 28.8308 84.3457 29.4281C83.8977 30.0255 83.5057 30.6788 83.1697 31.3881C82.6471 32.5268 82.3857 33.5721 82.3857 34.5241C82.3857 35.2148 82.5444 35.7841 82.8617 36.2321C83.1791 36.6615 83.6831 36.8761 84.3737 36.8761C85.2511 36.8761 86.0724 36.5775 86.8378 35.9801C87.6218 35.3641 88.3218 34.6548 88.9377 33.8521C89.3484 33.3295 89.7124 32.7975 90.0298 32.2561C90.3658 31.7148 90.6458 31.2201 90.8698 30.7721C90.9444 30.6415 91.0098 30.5761 91.0658 30.5761C91.1778 30.5761 91.2338 30.7348 91.2338 31.0521C91.2338 31.2015 91.2058 31.3788 91.1497 31.5841C91.1124 31.7708 91.0471 31.9481 90.9537 32.1161C90.6364 32.6388 90.3098 33.1615 89.9737 33.6841C89.6564 34.2068 89.3111 34.7015 88.9377 35.1681C88.3031 35.9895 87.5564 36.6708 86.6978 37.2121C85.8391 37.7535 84.7751 38.0241 83.5057 38.0241ZM87.2969 37.7441C87.5022 37.3708 87.7356 36.8948 87.9969 36.3161C88.2396 35.7375 88.4822 35.1121 88.7249 34.4401C88.9862 33.7495 89.2196 33.0868 89.4249 32.4521C89.8916 31.0148 90.3676 29.5961 90.8529 28.1961C91.3569 26.7961 91.8609 25.5828 92.3649 24.5561C92.5702 24.1081 92.8316 23.5668 93.1489 22.9321C93.4662 22.2788 93.8209 21.6068 94.2129 20.9161C94.6236 20.2255 95.0622 19.5815 95.5289 18.9841C96.0142 18.3681 96.5276 17.8735 97.0689 17.5001C97.6289 17.1268 98.2076 16.9401 98.8049 16.9401C99.4022 16.9401 99.8036 17.0708 100.009 17.3321C100.233 17.5935 100.345 17.9201 100.345 18.3121C100.345 18.7415 100.252 19.1988 100.065 19.6841C99.8782 20.1695 99.7009 20.5708 99.5329 20.8881C99.1596 21.5975 98.6742 22.4001 98.0769 23.2961C97.4982 24.1735 96.8916 24.9948 96.2569 25.7601C95.9396 26.1521 95.5569 26.6001 95.1089 27.1041C94.6609 27.5895 94.2129 28.0561 93.7649 28.5041C93.3356 28.9521 92.9622 29.3348 92.6449 29.6521L92.1409 31.0521C92.6262 30.4175 93.1396 29.8481 93.6809 29.3441C94.2222 28.8401 94.8102 28.3361 95.4449 27.8321C95.9116 27.4588 96.3969 27.1788 96.9009 26.9921C97.4236 26.8055 97.8996 26.7121 98.3289 26.7121C98.6462 26.7121 98.9356 26.7588 99.1969 26.8521C99.4769 26.9455 99.6822 27.0948 99.8129 27.3001C99.9062 27.4308 99.9716 27.5708 100.009 27.7201C100.046 27.8695 100.065 28.0188 100.065 28.1681C100.065 28.4668 100.009 28.7561 99.8969 29.0361C99.6542 29.6148 99.2996 30.1095 98.8329 30.5201C98.3849 30.9121 97.8716 31.2108 97.2929 31.4161C97.0876 31.4908 96.8169 31.5748 96.4809 31.6681C96.1449 31.7615 95.8462 31.8268 95.5849 31.8641C95.6222 32.1255 95.6502 32.3868 95.6689 32.6481C95.7062 32.9095 95.7436 33.1708 95.7809 33.4321C95.8929 34.0668 96.0329 34.6081 96.2009 35.0561C96.3876 35.5041 96.6769 35.7281 97.0689 35.7281C97.4236 35.7281 97.8996 35.4948 98.4969 35.0281C98.9262 34.6921 99.2996 34.3095 99.6169 33.8801C99.9902 33.3948 100.345 32.8815 100.681 32.3401C101.017 31.7801 101.306 31.2668 101.549 30.8001C101.624 30.6695 101.689 30.6041 101.745 30.6041C101.857 30.6041 101.913 30.7535 101.913 31.0521C101.913 31.2201 101.885 31.4068 101.829 31.6121C101.792 31.7988 101.717 31.9855 101.605 32.1721C101.344 32.6201 101.036 33.1055 100.681 33.6281C100.345 34.1508 99.9902 34.6641 99.6169 35.1681C99.4116 35.4481 99.1502 35.7561 98.8329 36.0921C98.5156 36.4281 98.1796 36.7361 97.8249 37.0161C97.5076 37.2588 97.1249 37.4828 96.6769 37.6881C96.2289 37.8748 95.7902 37.9681 95.3609 37.9681C95.0249 37.9681 94.7076 37.8935 94.4089 37.7441C94.1289 37.5948 93.8956 37.3428 93.7089 36.9881C93.5036 36.5961 93.3449 36.1295 93.2329 35.5881C93.1209 35.0468 93.0649 34.5055 93.0649 33.9641C93.0649 33.6655 93.0742 33.3761 93.0929 33.0961C93.1302 32.7975 93.1862 32.5268 93.2609 32.2841C93.3542 31.9668 93.4476 31.7521 93.5409 31.6401C93.6342 31.5281 93.7556 31.4721 93.9049 31.4721C94.4462 31.4535 94.9782 31.3788 95.5009 31.2481C96.0236 31.0988 96.4622 30.8655 96.8169 30.5481C97.2462 30.1748 97.4609 29.7548 97.4609 29.2881C97.4609 29.0828 97.3862 28.9055 97.2369 28.7561C97.1062 28.5881 96.8822 28.5041 96.5649 28.5041C96.1356 28.5041 95.7156 28.6441 95.3049 28.9241C94.8942 29.2041 94.5022 29.5681 94.1289 30.0161C93.7556 30.4641 93.4102 30.9308 93.0929 31.4161C92.7756 31.8828 92.5049 32.3121 92.2809 32.7041C92.1129 32.9841 91.9262 33.3481 91.7209 33.7961C91.5156 34.2441 91.3009 34.7108 91.0769 35.1961C90.8529 35.6815 90.6289 36.1201 90.4049 36.5121C90.1809 36.9041 89.9662 37.1935 89.7609 37.3801C89.5182 37.6228 89.2662 37.7441 89.0049 37.7441H87.2969ZM93.3729 27.7481C94.3062 26.6655 95.2209 25.5268 96.1169 24.3321C97.0129 23.1375 97.7782 21.9148 98.4129 20.6641C98.4689 20.5708 98.5622 20.3748 98.6929 20.0761C98.8236 19.7775 98.9449 19.4508 99.0569 19.0961C99.1876 18.7415 99.2529 18.4335 99.2529 18.1721C99.2529 17.8361 99.1222 17.6681 98.8609 17.6681C98.5996 17.6681 98.2822 17.8921 97.9089 18.3401C97.5542 18.7881 97.1716 19.3855 96.7609 20.1321C96.3689 20.8601 95.9676 21.6721 95.5569 22.5681C95.1462 23.4455 94.7542 24.3415 94.3809 25.2561C94.0076 26.1521 93.6716 26.9828 93.3729 27.7481ZM106.257 37.3521C105.398 37.8001 104.493 38.0241 103.541 38.0241C102.738 38.0241 101.991 37.8281 101.301 37.4361C100.61 37.0441 100.143 36.4188 99.9006 35.5601C99.7886 35.1681 99.7326 34.7575 99.7326 34.3281C99.7326 33.6188 99.854 32.8908 100.097 32.1441C100.358 31.3788 100.694 30.6788 101.105 30.0441C101.739 29.0548 102.542 28.2335 103.513 27.5801C104.483 26.9268 105.557 26.6001 106.733 26.6001C107.61 26.6001 108.291 26.8241 108.777 27.2721C109.262 27.7201 109.505 28.2428 109.505 28.8401C109.505 29.5495 109.262 30.1748 108.777 30.7161C108.31 31.2388 107.694 31.6401 106.929 31.9201C106.555 32.0508 106.154 32.1535 105.725 32.2281C105.314 32.2841 104.922 32.3121 104.549 32.3121C103.783 32.3121 103.195 32.2095 102.785 32.0041C102.43 32.9188 102.253 33.7588 102.253 34.5241C102.253 35.2148 102.411 35.7841 102.729 36.2321C103.046 36.6615 103.55 36.8761 104.241 36.8761C104.819 36.8761 105.389 36.7175 105.949 36.4001C106.527 36.0828 107.059 35.6908 107.545 35.2241C108.049 34.7575 108.469 34.3095 108.805 33.8801C109.066 33.5628 109.29 33.2641 109.477 32.9841C109.663 32.7041 109.859 32.3868 110.065 32.0321C110.27 31.6588 110.513 31.2015 110.793 30.6601C110.867 30.5295 110.933 30.4641 110.989 30.4641C111.101 30.4641 111.157 30.6135 111.157 30.9121C111.157 31.0801 111.129 31.2668 111.073 31.4721C111.035 31.6588 110.961 31.8548 110.849 32.0601C110.587 32.5268 110.27 33.0401 109.897 33.6001C109.542 34.1415 109.178 34.6641 108.805 35.1681C108.469 35.6161 108.086 36.0268 107.657 36.4001C107.227 36.7735 106.761 37.0908 106.257 37.3521ZM103.709 31.3881C103.802 31.4441 103.905 31.4815 104.017 31.5001C104.129 31.5188 104.241 31.5281 104.353 31.5281C104.726 31.5281 105.099 31.4441 105.473 31.2761C105.846 31.0895 106.163 30.9028 106.425 30.7161C106.854 30.4175 107.218 30.0628 107.517 29.6521C107.815 29.2415 107.983 28.7748 108.021 28.2521C108.039 28.0281 107.983 27.8415 107.853 27.6921C107.741 27.5241 107.535 27.4401 107.237 27.4401C107.087 27.4401 106.901 27.4681 106.677 27.5241C106.378 27.5988 106.079 27.7388 105.781 27.9441C105.482 28.1495 105.193 28.3921 104.913 28.6721C104.819 28.7655 104.651 28.9521 104.409 29.2321C104.185 29.4935 103.97 29.7921 103.765 30.1281C103.559 30.4455 103.457 30.7255 103.457 30.9681C103.457 31.1735 103.541 31.3135 103.709 31.3881ZM111.196 37.9121C110.654 37.9121 110.244 37.6975 109.964 37.2681C109.833 37.0628 109.74 36.8201 109.684 36.5401C109.628 36.2601 109.6 35.9708 109.6 35.6721C109.6 35.3735 109.618 35.0748 109.656 34.7761C109.693 34.4588 109.74 34.1508 109.796 33.8521C109.889 33.3668 109.992 32.9281 110.104 32.5361C110.234 32.1255 110.365 31.7335 110.496 31.3601V31.3321C110.346 31.6121 110.16 31.9201 109.936 32.2561C109.712 32.5735 109.553 32.8068 109.46 32.9561C109.329 33.1615 109.226 33.2641 109.152 33.2641C109.077 33.2641 109.04 33.1801 109.04 33.0121C109.04 32.6388 109.152 32.2281 109.376 31.7801C109.525 31.4815 109.73 31.0988 109.992 30.6321C110.253 30.1468 110.524 29.6241 110.804 29.0641C111.084 28.5041 111.326 27.9628 111.532 27.4401H109.656C109.562 27.4401 109.544 27.3655 109.6 27.2161C109.656 27.0668 109.74 26.9268 109.852 26.7961C109.964 26.6468 110.048 26.5721 110.104 26.5721H112.232C112.437 26.0868 112.67 25.5641 112.932 25.0041C113.212 24.4441 113.52 23.9215 113.856 23.4361C114.21 22.9321 114.593 22.5215 115.004 22.2041C115.414 21.8868 115.853 21.7281 116.32 21.7281C116.525 21.7281 116.777 21.7281 117.076 21.7281C117.393 21.7281 117.589 21.7188 117.664 21.7001C117.272 21.9615 116.814 22.4841 116.292 23.2681C115.769 24.0335 115.2 25.1348 114.584 26.5721H117.412C117.468 26.5721 117.449 26.6468 117.356 26.7961C117.262 26.9268 117.141 27.0668 116.992 27.2161C116.861 27.3655 116.73 27.4401 116.6 27.4401H114.192C113.949 28.0561 113.678 28.7281 113.38 29.4561C113.1 30.1841 112.838 30.9028 112.596 31.6121C112.372 32.3028 112.204 32.9375 112.092 33.5161C112.017 33.8708 111.98 34.1975 111.98 34.4961C111.98 35.2055 112.204 35.5601 112.652 35.5601C112.95 35.5601 113.305 35.4108 113.716 35.1121C114.126 34.8135 114.537 34.4028 114.948 33.8801C115.321 33.3948 115.676 32.8721 116.012 32.3121C116.366 31.7521 116.665 31.2388 116.908 30.7721C116.982 30.6415 117.048 30.5761 117.104 30.5761C117.216 30.5761 117.272 30.7255 117.272 31.0241C117.272 31.1735 117.244 31.3508 117.188 31.5561C117.15 31.7428 117.076 31.9295 116.964 32.1161C116.702 32.5641 116.394 33.0588 116.04 33.6001C115.685 34.1228 115.321 34.6455 114.948 35.1681C114.686 35.5041 114.341 35.8868 113.912 36.3161C113.501 36.7455 113.053 37.1188 112.568 37.4361C112.101 37.7535 111.644 37.9121 111.196 37.9121ZM133.607 37.9681C132.917 37.9681 132.45 37.8001 132.207 37.4641C131.983 37.1281 131.871 36.6988 131.871 36.1761C131.871 35.8588 131.899 35.5415 131.955 35.2241C132.011 34.8881 132.067 34.5428 132.123 34.1881C132.273 33.3855 132.525 32.4801 132.879 31.4721C133.253 30.4455 133.673 29.3441 134.139 28.1681H126.215C125.991 28.6721 125.721 29.3255 125.403 30.1281C125.105 30.9121 124.806 31.7521 124.507 32.6481C124.209 33.5441 123.957 34.3935 123.751 35.1961C123.546 35.9801 123.443 36.6241 123.443 37.1281C123.443 37.4081 123.481 37.6135 123.555 37.7441H119.943C120.167 36.8108 120.466 35.7748 120.839 34.6361C121.231 33.4788 121.67 32.2748 122.155 31.0241C122.659 29.7735 123.173 28.5321 123.695 27.3001C124.218 26.0681 124.722 24.8921 125.207 23.7721C125.693 22.6335 126.253 21.4855 126.887 20.3281C127.018 20.1041 127.13 19.8988 127.223 19.7121C127.335 19.5255 127.457 19.3668 127.587 19.2361C126.859 19.2548 126.075 19.3481 125.235 19.5161C124.414 19.6655 123.621 19.8801 122.855 20.1601C122.109 20.4401 121.465 20.7668 120.923 21.1401C120.401 21.5135 120.065 21.9241 119.915 22.3721C119.897 22.4281 119.859 22.4561 119.803 22.4561C119.635 22.4561 119.551 22.3255 119.551 22.0641C119.551 22.0081 119.57 21.9241 119.607 21.8121C119.775 21.3268 119.981 20.8975 120.223 20.5241C120.485 20.1508 120.746 19.8335 121.007 19.5721C121.623 18.9375 122.314 18.5548 123.079 18.4241C123.845 18.2748 124.657 18.2001 125.515 18.2001H131.843C131.433 18.5175 130.994 19.0121 130.527 19.6841C130.061 20.3561 129.594 21.1215 129.127 21.9801C128.661 22.8201 128.222 23.6695 127.811 24.5281C127.419 25.3681 127.074 26.1241 126.775 26.7961H134.699C135.11 25.8255 135.521 24.9015 135.931 24.0241C136.342 23.1281 136.706 22.3348 137.023 21.6441C137.359 20.9535 137.621 20.4401 137.807 20.1041C138.013 19.6935 138.209 19.3481 138.395 19.0681C138.601 18.7881 138.862 18.5735 139.179 18.4241C139.497 18.2748 139.945 18.2001 140.523 18.2001H142.315C141.979 18.4615 141.597 18.9095 141.167 19.5441C140.757 20.1601 140.337 20.8508 139.907 21.6161C139.497 22.3815 139.133 23.1095 138.815 23.8001C138.349 24.7895 137.854 25.9095 137.331 27.1601C136.827 28.4108 136.37 29.6615 135.959 30.9121C135.567 32.1441 135.287 33.2548 135.119 34.2441C135.063 34.5241 135.035 34.8041 135.035 35.0841C135.035 35.4948 135.11 35.8775 135.259 36.2321C135.409 36.5681 135.679 36.7361 136.071 36.7361C136.37 36.7361 136.734 36.6148 137.163 36.3721H137.191C137.229 36.3721 137.257 36.4095 137.275 36.4841C137.294 36.5401 137.285 36.5868 137.247 36.6241C137.023 36.8668 136.706 37.0908 136.295 37.2961C135.885 37.5015 135.437 37.6601 134.951 37.7721C134.485 37.9028 134.037 37.9681 133.607 37.9681ZM141.211 37.7441C141.435 36.8108 141.734 35.7748 142.107 34.6361C142.499 33.4788 142.938 32.2748 143.423 31.0241C143.927 29.7735 144.441 28.5321 144.963 27.3001C145.486 26.0681 145.99 24.8921 146.475 23.7721C146.961 22.6335 147.521 21.4855 148.155 20.3281C148.286 20.1041 148.398 19.8988 148.491 19.7121C148.603 19.5255 148.725 19.3668 148.855 19.2361C148.127 19.2548 147.343 19.3481 146.503 19.5161C145.682 19.6655 144.889 19.8801 144.123 20.1601C143.377 20.4401 142.733 20.7668 142.191 21.1401C141.669 21.5135 141.333 21.9241 141.183 22.3721C141.165 22.4281 141.127 22.4561 141.071 22.4561C140.903 22.4561 140.819 22.3255 140.819 22.0641C140.819 22.0081 140.838 21.9241 140.875 21.8121C141.043 21.3268 141.249 20.8975 141.491 20.5241C141.753 20.1508 142.014 19.8335 142.275 19.5721C142.891 18.9375 143.582 18.5548 144.347 18.4241C145.113 18.2748 145.925 18.2001 146.783 18.2001H153.111C152.663 18.5361 152.187 19.0868 151.683 19.8521C151.179 20.5988 150.685 21.4388 150.199 22.3721C149.714 23.3055 149.257 24.2201 148.827 25.1161C148.417 26.0121 148.071 26.7681 147.791 27.3841C147.661 27.6828 147.474 28.1401 147.231 28.7561C146.989 29.3535 146.718 30.0348 146.419 30.8001C146.139 31.5655 145.869 32.3588 145.607 33.1801C145.346 33.9828 145.131 34.7295 144.963 35.4201C144.795 36.1108 144.711 36.6801 144.711 37.1281C144.711 37.2588 144.721 37.3801 144.739 37.4921C144.777 37.5855 144.805 37.6695 144.823 37.7441H141.211ZM153.822 37.7441C154.046 37.3148 154.196 36.7735 154.27 36.1201C154.364 35.4668 154.42 34.7761 154.438 34.0481C154.476 33.3015 154.513 32.5828 154.55 31.8921C154.588 31.2388 154.616 30.5668 154.634 29.8761C154.653 29.1855 154.662 28.4855 154.662 27.7761C154.662 26.7868 154.625 25.8161 154.55 24.8641C154.494 23.8935 154.382 23.0068 154.214 22.2041C154.14 21.7748 153.99 21.3641 153.766 20.9721C153.561 20.5801 153.3 20.3841 152.982 20.3841C152.814 20.3841 152.628 20.4588 152.422 20.6081C152.236 20.7388 152.021 20.9908 151.778 21.3641C151.76 21.4015 151.722 21.3921 151.666 21.3361C151.629 21.2801 151.62 21.2335 151.638 21.1961C151.788 20.7295 152.086 20.2255 152.534 19.6841C152.982 19.1428 153.458 18.6948 153.962 18.3401C154.224 18.1535 154.457 18.0228 154.662 17.9481C154.886 17.8735 155.092 17.8361 155.278 17.8361C155.838 17.8361 156.268 18.1255 156.566 18.7041C156.865 19.2641 157.08 19.8988 157.21 20.6081C157.341 21.3175 157.425 22.1761 157.462 23.1841C157.518 24.1735 157.546 25.2095 157.546 26.2921C157.546 27.4308 157.528 28.5601 157.49 29.6801C157.453 30.8001 157.406 31.7988 157.35 32.6761C157.294 33.5535 157.248 34.2068 157.21 34.6361C157.845 33.7588 158.536 32.7228 159.282 31.5281C160.029 30.3335 160.785 29.0828 161.55 27.7761C162.334 26.4695 163.072 25.2001 163.762 23.9681C164.453 22.7175 165.06 21.5881 165.582 20.5801C166.124 19.5721 166.516 18.7788 166.758 18.2001H169.278C168.998 18.6481 168.55 19.3575 167.934 20.3281C167.318 21.2801 166.6 22.3815 165.778 23.6321C164.976 24.8828 164.126 26.1988 163.23 27.5801C162.334 28.9428 161.466 30.2775 160.626 31.5841C159.786 32.8721 159.04 34.0201 158.386 35.0281C158.032 35.6068 157.658 36.1761 157.266 36.7361C156.893 37.2775 156.426 37.6041 155.866 37.7161C155.81 37.7348 155.726 37.7441 155.614 37.7441H153.822ZM169.563 37.7441C169.264 37.7441 169.04 37.6228 168.891 37.3801C168.76 37.1375 168.695 36.8201 168.695 36.4281C168.695 35.8868 168.779 35.2521 168.947 34.5241C169.133 33.7961 169.357 33.0401 169.619 32.2561C169.899 31.4721 170.179 30.7255 170.459 30.0161C170.739 29.2881 170.981 28.6721 171.187 28.1681H169.647C169.497 28.1681 169.423 28.1121 169.423 28.0001C169.423 27.8881 169.507 27.7388 169.675 27.5521C169.843 27.3468 170.039 27.1695 170.263 27.0201C170.487 26.8708 170.673 26.7961 170.823 26.7961H171.775C172.241 25.6948 172.68 24.6681 173.091 23.7161C173.501 22.7455 174.015 21.7188 174.631 20.6361C174.78 20.3748 174.92 20.1321 175.051 19.9081C175.181 19.6655 175.331 19.4508 175.499 19.2641C174.491 19.3948 173.455 19.5908 172.391 19.8521C171.345 20.1135 170.412 20.4495 169.591 20.8601C168.769 21.2708 168.191 21.7561 167.855 22.3161C167.836 22.3721 167.799 22.4001 167.743 22.4001C167.705 22.4001 167.677 22.3628 167.659 22.2881C167.621 22.2135 167.612 22.1295 167.631 22.0361C167.817 21.5508 168.051 21.0841 168.331 20.6361C168.611 20.1881 168.881 19.8335 169.143 19.5721C169.553 19.1428 170.113 18.8348 170.823 18.6481C171.532 18.4615 172.26 18.3401 173.007 18.2841C173.772 18.2281 174.425 18.2001 174.967 18.2001H180.511C181.164 18.2001 181.743 18.1815 182.247 18.1441C182.769 18.0881 183.208 18.0601 183.563 18.0601C184.141 18.0601 184.477 18.2001 184.571 18.4801C184.589 18.5548 184.599 18.6295 184.599 18.7041C184.617 18.7601 184.627 18.8348 184.627 18.9281C184.627 19.3015 184.543 19.7308 184.375 20.2161C184.207 20.6828 184.02 21.1401 183.815 21.5881C183.628 22.0175 183.479 22.3721 183.367 22.6521C183.348 22.7455 183.292 22.8108 183.199 22.8481C183.124 22.8855 183.049 22.9041 182.975 22.9041C182.881 22.9041 182.797 22.8855 182.723 22.8481C182.667 22.8108 182.648 22.6895 182.667 22.4841C182.704 22.2601 182.751 22.0081 182.807 21.7281C182.863 21.4481 182.891 21.2055 182.891 21.0001C182.891 20.4028 182.648 19.9455 182.163 19.6281C181.696 19.2921 181.108 19.1241 180.399 19.1241C179.876 19.1241 179.447 19.1708 179.111 19.2641C178.775 19.3388 178.504 19.5348 178.299 19.8521C177.552 20.9535 176.871 22.0828 176.255 23.2401C175.657 24.3975 175.097 25.5828 174.575 26.7961H181.883C181.939 26.7961 181.901 26.9081 181.771 27.1321C181.659 27.3561 181.509 27.5895 181.323 27.8321C181.155 28.0561 181.005 28.1681 180.875 28.1681H173.959C173.753 28.6908 173.511 29.3255 173.231 30.0721C172.951 30.8188 172.689 31.5561 172.447 32.2841C172.223 33.0121 172.045 33.6375 171.915 34.1601C171.803 34.6081 171.747 35.0095 171.747 35.3641C171.747 35.8308 171.887 36.1855 172.167 36.4281C172.465 36.6708 172.979 36.7921 173.707 36.7921C174.715 36.7921 175.723 36.7548 176.731 36.6801C177.739 36.5868 178.728 36.4001 179.699 36.1201C180.539 35.8775 181.285 35.5508 181.939 35.1401C182.611 34.7295 183.096 34.2161 183.395 33.6001C183.432 33.5255 183.488 33.4881 183.563 33.4881C183.693 33.4881 183.759 33.5908 183.759 33.7961C183.759 33.8335 183.749 33.8801 183.731 33.9361C183.731 33.9921 183.721 34.0575 183.703 34.1321C183.553 34.6175 183.376 35.0468 183.171 35.4201C182.965 35.7935 182.751 36.1108 182.527 36.3721C182.004 37.0068 181.332 37.3988 180.511 37.5481C179.689 37.6788 178.868 37.7441 178.047 37.7441H169.563Z" fill="white"/>
<defs>
<clipPath id="clip0_1_311">
<rect width="56" height="56" fill="white" transform="translate(0.550781 0.744141)"/>
</clipPath>
</defs>
</svg>
