<svg width="24" height="25" viewBox="0 0 24 25" fill="none" xmlns="http://www.w3.org/2000/svg">
<path d="M2 4.33594C2 3.23137 2.89543 2.33594 4 2.33594H8C9.10457 2.33594 10 3.23137 10 4.33594V8.33594C10 9.44051 9.10457 10.3359 8 10.3359H4C2.89543 10.3359 2 9.44051 2 8.33594V4.33594Z" stroke="#909090" stroke-width="1.5"/>
<path d="M22 6.33594C22 8.54508 20.2091 10.3359 18 10.3359C15.7909 10.3359 14 8.54508 14 6.33594C14 4.1268 15.7909 2.33594 18 2.33594C20.2091 2.33594 22 4.1268 22 6.33594Z" stroke="#909090" stroke-width="1.5"/>
<path d="M10 18.3359C10 20.5451 8.20914 22.3359 6 22.3359C3.79086 22.3359 2 20.5451 2 18.3359C2 16.1268 3.79086 14.3359 6 14.3359C8.20914 14.3359 10 16.1268 10 18.3359Z" stroke="#909090" stroke-width="1.5"/>
<path d="M14 16.3359C14 15.2314 14.8954 14.3359 16 14.3359H20C21.1046 14.3359 22 15.2314 22 16.3359V20.3359C22 21.4405 21.1046 22.3359 20 22.3359H16C14.8954 22.3359 14 21.4405 14 20.3359V16.3359Z" stroke="#909090" stroke-width="1.5"/>
</svg>
